<svg width="103" height="103" viewBox="0 0 103 103" fill="none" xmlns="http://www.w3.org/2000/svg">
<path d="M40.5927 62.3751L42.714 64.4965L40.5927 62.3751C39.7318 63.236 39.2481 64.4037 39.2481 65.6212V92.6607C39.2481 92.7087 39.229 92.7548 39.1951 92.7888C39.1611 92.8227 39.115 92.8418 39.067 92.8418H19.9604C19.0687 92.8418 18.2135 92.4876 17.5829 91.857C16.9525 91.2266 16.5983 90.3716 16.5981 89.4801C16.5981 89.4799 16.5981 89.4798 16.5981 89.4796L16.604 57.2634L51.7973 23.6434L86.9769 57.2631V89.4796C86.9769 90.3713 86.6227 91.2265 85.9921 91.857C85.3616 92.4876 84.5064 92.8418 83.6146 92.8418H64.516C64.4679 92.8418 64.4219 92.8227 64.3879 92.7888C64.3539 92.7548 64.3349 92.7087 64.3349 92.6607V65.6212C64.3349 64.4037 63.8512 63.236 62.9903 62.3751L60.869 64.4965L62.9903 62.3751C62.1294 61.5142 60.9618 61.0306 59.7443 61.0306H43.8387C42.6212 61.0306 41.4536 61.5142 40.5927 62.3751ZM16.6041 56.6589C16.6041 56.6602 16.6041 56.6616 16.6041 56.6629L16.6041 56.6589ZM50.8253 22.7145C50.8246 22.7138 50.8239 22.7132 50.8232 22.7125L50.8242 22.7135L50.8253 22.7145Z" stroke="#F5E8C9" stroke-width="6"/>
<path d="M98.4963 48.9501L83.6246 34.7225V13.1327C83.6246 12.289 83.2894 11.4798 82.6929 10.8833C82.0963 10.2867 81.2871 9.95153 80.4435 9.95153H70.9001C70.0564 9.95153 69.2473 10.2867 68.6507 10.8833C68.0541 11.4798 67.719 12.289 67.719 13.1327V19.4949L56.2033 8.48424C55.1257 7.3947 53.5232 6.77041 51.7915 6.77041C50.0657 6.77041 48.4672 7.3947 47.3896 8.48623L5.10057 48.9461C3.86391 50.139 3.70883 52.1014 4.83415 53.3937C5.11674 53.7199 5.46275 53.9852 5.85112 54.1735C6.23949 54.3617 6.6621 54.4689 7.09323 54.4886C7.52436 54.5084 7.95499 54.4401 8.35892 54.2881C8.76285 54.1361 9.13163 53.9035 9.4428 53.6045L50.698 14.1824C50.994 13.8993 51.3878 13.7412 51.7975 13.7412C52.2071 13.7412 52.6009 13.8993 52.8969 14.1824L94.1561 53.6045C94.7639 54.1873 95.5779 54.5054 96.4198 54.489C97.2618 54.4726 98.0628 54.1231 98.6474 53.517C99.8682 52.2525 99.7668 50.1649 98.4963 48.9501Z" fill="#F5E8C9"/>
</svg>
