<svg width="111" height="111" viewBox="0 0 111 111" fill="none" xmlns="http://www.w3.org/2000/svg">
<path d="M101.585 64.9306L101.484 64.8485L94.6681 59.5035C94.2364 59.162 93.892 58.7231 93.663 58.2226C93.434 57.7222 93.3269 57.1746 93.3507 56.6247V54.1282C93.3291 53.5819 93.4374 53.0382 93.6668 52.5419C93.8962 52.0456 94.2401 51.6108 94.6702 51.2733L101.484 45.9261L101.585 45.844C102.636 44.9687 103.341 43.7481 103.575 42.4005C103.808 41.0529 103.555 39.6662 102.859 38.4884L93.6358 22.529C93.6252 22.5139 93.6158 22.4981 93.6077 22.4815C92.9088 21.32 91.8252 20.4399 90.545 19.9941C89.2648 19.5483 87.869 19.565 86.5998 20.0412L86.5242 20.0692L78.5121 23.2935C78.0064 23.498 77.4594 23.5793 76.916 23.5309C76.3727 23.4825 75.8487 23.3056 75.3872 23.0149C74.6788 22.5686 73.9589 22.1468 73.2276 21.7494C72.7534 21.4922 72.3462 21.1273 72.039 20.6839C71.7318 20.2405 71.5331 19.7311 71.4589 19.1967L70.2516 10.6469L70.2257 10.4914C69.9629 9.16714 69.2523 7.97369 68.2132 7.11162C67.1742 6.24956 65.8701 5.77142 64.5201 5.75757H46.0512C44.6821 5.76195 43.3585 6.24934 42.3136 7.13389C41.2687 8.01843 40.5694 9.24337 40.339 10.5929L40.3196 10.7138L39.1167 19.281C39.0429 19.8138 38.8458 20.3219 38.541 20.7651C38.2362 21.2083 37.8321 21.5741 37.361 21.8336C36.6274 22.2287 35.9072 22.6479 35.2014 23.0905C34.7406 23.3794 34.2179 23.5549 33.6762 23.6026C33.1345 23.6503 32.5892 23.5688 32.0851 23.3648L24.0665 20.1254L23.9909 20.0951C22.7199 19.6185 21.322 19.6024 20.0404 20.0499C18.7588 20.4973 17.6746 21.3799 16.9765 22.5441L16.9484 22.5916L7.71184 38.5619C7.01565 39.7409 6.76155 41.1291 6.99498 42.4782C7.22842 43.8274 7.93416 45.0495 8.986 45.9261L9.0875 46.0082L15.9032 51.3532C16.3348 51.6946 16.6793 52.1336 16.9083 52.634C17.1373 53.1345 17.2443 53.6821 17.2205 54.2319V56.7284C17.2422 57.2747 17.1338 57.8184 16.9045 58.3147C16.6751 58.8111 16.3312 59.2458 15.901 59.5834L9.0875 64.9306L8.986 65.0126C7.9352 65.888 7.23003 67.1086 6.9966 68.4562C6.76317 69.8037 7.01669 71.1904 7.71184 72.3682L16.9355 88.3276C16.9461 88.3427 16.9555 88.3586 16.9636 88.3752C17.6625 89.5367 18.7461 90.4167 20.0262 90.8625C21.3064 91.3083 22.7023 91.2917 23.9715 90.8155L24.047 90.7874L32.0527 87.5631C32.5584 87.3587 33.1054 87.2773 33.6487 87.3257C34.192 87.3742 34.7161 87.551 35.1776 87.8417C35.886 88.2895 36.6058 88.7113 37.3372 89.1073C37.8114 89.3644 38.2185 89.7294 38.5258 90.1728C38.833 90.6162 39.0317 91.1256 39.1059 91.6599L40.3067 100.21L40.3326 100.365C40.5958 101.692 41.3084 102.887 42.3501 103.749C43.3918 104.611 44.6989 105.088 46.0512 105.099H64.5201C65.8891 105.095 67.2127 104.607 68.2576 103.723C69.3026 102.838 70.0018 101.613 70.2322 100.264L70.2516 100.143L71.4545 91.5757C71.5295 91.0419 71.7283 90.533 72.035 90.0898C72.3418 89.6466 72.7479 89.2812 73.2211 89.023C73.9597 88.6257 74.681 88.2045 75.3807 87.7661C75.8414 87.4772 76.3641 87.3017 76.9058 87.254C77.4476 87.2064 77.9929 87.2879 78.497 87.4919L86.5156 90.7205L86.5912 90.7507C87.8621 91.2283 89.2603 91.2447 90.5421 90.7972C91.8239 90.3497 92.908 89.4665 93.6055 88.3017C93.6142 88.2855 93.6236 88.2697 93.6336 88.2542L102.857 72.2969C103.555 71.1181 103.81 69.7295 103.577 68.3797C103.344 67.03 102.638 65.8073 101.585 64.9306ZM72.543 56.2403C72.3857 59.5846 71.2601 62.8112 69.3031 65.5277C67.3461 68.2441 64.6419 70.3335 61.5195 71.5416C58.3971 72.7497 54.9909 73.0245 51.7151 72.3327C48.4394 71.6408 45.4352 70.0121 43.068 67.6446C40.7007 65.2771 39.0724 62.2727 38.3809 58.9969C37.6895 55.7211 37.9647 52.3149 39.1732 49.1926C40.3817 46.0703 42.4714 43.3664 45.1881 41.4097C47.9048 39.453 51.1315 38.3278 54.4758 38.171C56.8767 38.0653 59.2734 38.4603 61.5134 39.331C63.7534 40.2017 65.7878 41.529 67.487 43.2285C69.1863 44.928 70.5133 46.9624 71.3838 49.2025C72.2542 51.4427 72.649 53.8394 72.543 56.2403Z" fill="#F5E8C9"/>
</svg>
