<svg width="200" height="200" viewBox="0 0 200 200" fill="none" xmlns="http://www.w3.org/2000/svg">
<path d="M10.5263 200V155.263L149.211 16.842C151.316 14.7368 153.684 13.1578 156.316 12.1052C158.947 11.0526 161.579 10.5262 164.211 10.5262C167.018 10.5262 169.695 11.0526 172.242 12.1052C174.789 13.1578 177.025 14.7368 178.947 16.842L193.684 31.5789C195.789 33.5087 197.368 35.7473 198.421 38.2947C199.474 40.842 200 43.5157 200 46.3157C200 48.9473 199.474 51.5789 198.421 54.2105C197.368 56.842 195.789 59.2105 193.684 61.3157L55.2632 200H10.5263ZM31.5789 178.947H46.3158L149.737 75.7894L142.368 68.1578L134.737 60.7894L31.5789 164.21V178.947ZM142.368 68.1578L134.737 60.7894L149.737 75.7894L142.368 68.1578ZM115.789 200C128.772 200 140.789 196.754 151.842 190.263C162.895 183.772 168.421 174.737 168.421 163.158C168.421 156.842 166.754 151.403 163.421 146.842C160.088 142.281 155.614 138.333 150 135L134.474 150.526C138.509 152.281 141.667 154.21 143.947 156.316C146.228 158.421 147.368 160.702 147.368 163.158C147.368 167.193 144.165 170.835 137.758 174.084C131.351 177.333 124.028 178.954 115.789 178.947C112.807 178.947 110.309 179.958 108.295 181.979C106.281 184 105.27 186.498 105.263 189.474C105.256 192.449 106.267 194.951 108.295 196.979C110.323 199.007 112.821 200.014 115.789 200ZM16.5789 119.474L32.3684 103.684C28.8596 102.281 26.0947 100.835 24.0737 99.3473C22.0526 97.8596 21.0456 96.3227 21.0526 94.7368C21.0526 92.6315 22.6316 90.5262 25.7895 88.421C28.9474 86.3157 35.614 83.0701 45.7895 78.6841C61.2281 72.0175 71.4912 65.9648 76.5789 60.5262C81.6667 55.0876 84.2105 48.9473 84.2105 42.1052C84.2105 32.4561 80.3509 24.7824 72.6316 19.0841C64.9123 13.3859 54.7368 10.5333 42.1053 10.5262C34.2105 10.5262 27.1474 11.9298 20.9158 14.7368C14.6842 17.5438 9.90526 20.9648 6.57895 24.9999C4.64912 27.2806 3.85965 29.8245 4.21053 32.6315C4.5614 35.4385 5.87719 37.7192 8.1579 39.4736C10.4386 41.4034 12.9825 42.1929 15.7895 41.842C18.5965 41.4912 20.9649 40.3508 22.8947 38.421C25.3509 35.9648 28.0702 34.2105 31.0526 33.1578C34.0351 32.1052 37.7193 31.5789 42.1053 31.5789C49.2982 31.5789 54.607 32.6315 58.0316 34.7368C61.4561 36.842 63.1649 39.2982 63.1579 42.1052C63.1579 44.5613 61.6246 46.7964 58.5579 48.8105C55.4912 50.8245 48.4281 54.3789 37.3684 59.4736C23.3333 65.614 13.5965 71.1859 8.1579 76.1894C2.7193 81.1929 0 87.3754 0 94.7368C0 100.351 1.49123 105.133 4.47368 109.084C7.45614 113.035 11.4912 116.498 16.5789 119.474Z" fill="#F5E8C9"/>
</svg>
