<svg width="200" height="200" viewBox="0 0 200 200" fill="none" xmlns="http://www.w3.org/2000/svg">
<path d="M100 22.2222C112.333 22.2222 122.222 32.1111 122.222 44.4444C122.222 56.7777 112.333 66.6666 100 66.6666C87.6667 66.6666 77.7778 56.7777 77.7778 44.4444C77.7778 32.1111 87.7778 22.2222 100 22.2222ZM200 155.555V133.333C175.111 133.333 153.778 122.667 137.778 103.555L122.889 85.7777C120.822 83.2719 118.225 81.2549 115.286 79.8717C112.347 78.4885 109.137 77.7734 105.889 77.7777H94.4444C87.6667 77.7777 81.4444 80.6666 77.2222 85.7777L62.3333 103.555C46.2222 122.667 24.8889 133.333 0 133.333V155.555C30.7778 155.555 57.6667 142.555 77.7778 119.444V144.444L34.6667 161.667C27.2222 164.667 22.2222 172.222 22.2222 180.111C22.2222 191.111 31.1111 200 42.1111 200H66.6667V194.444C66.6667 187.077 69.5932 180.012 74.8026 174.803C80.0119 169.593 87.0773 166.667 94.4444 166.667H127.778C130.889 166.667 133.333 169.111 133.333 172.222C133.333 175.333 130.889 177.778 127.778 177.778H94.4444C85.2222 177.778 77.7778 185.222 77.7778 194.444V200H157.889C168.889 200 177.778 191.111 177.778 180.111C177.778 172.222 172.778 164.667 165.333 161.667L122.222 144.444V119.444C142.333 142.555 169.222 155.555 200 155.555Z" fill="#F5E8C9"/>
</svg>
