<svg width="200" height="200" viewBox="0 0 200 200" fill="none" xmlns="http://www.w3.org/2000/svg">
<path d="M18.0059 188.241H59.7528L75.408 156.931M153.684 188.241L143.247 136.057H91.0631L101.5 63M91.0631 21.253C91.0631 24.021 92.1627 26.6757 94.1199 28.6329C96.0772 30.5902 98.7318 31.6898 101.5 31.6898C104.268 31.6898 106.922 30.5902 108.88 28.6329C110.837 26.6757 111.937 24.021 111.937 21.253C111.937 18.485 110.837 15.8304 108.88 13.8731C106.922 11.9159 104.268 10.8163 101.5 10.8163C98.7318 10.8163 96.0772 11.9159 94.1199 13.8731C92.1627 15.8304 91.0631 18.485 91.0631 21.253Z" stroke="#F8F8F8" stroke-width="20.0196" stroke-linecap="round" stroke-linejoin="round"/>
<path d="M18.0059 83.8736L59.7528 73.4369L101.5 63.0001L143.247 78.6552L184.994 94.3104" stroke="#F8F8F8" stroke-width="20.0196" stroke-linecap="round" stroke-linejoin="round"/>
</svg>
