<svg width="200" height="200" viewBox="0 0 200 200" fill="none" xmlns="http://www.w3.org/2000/svg">
<path d="M191.064 66.9325L132.865 8.81486L138.018 3.66903C140.491 1.19903 143.49 -0.023863 147.014 0.000352657C150.547 0.0245684 153.55 1.27167 156.023 3.74167L196.278 44.1819C198.759 46.6519 200 49.5981 200 53.0206C200 56.4431 198.763 59.3893 196.29 61.8593L191.064 66.9325ZM61.9097 196.281C59.5898 198.597 56.7202 199.832 53.301 199.986C49.8818 200.139 47.0082 199.061 44.6802 196.753L3.71021 156.071C1.23674 153.601 0 150.614 0 147.111C0 143.616 1.23674 140.633 3.71021 138.163L9.72416 132.157L67.9236 190.275L61.9097 196.281ZM102.14 195.494C100.176 197.447 97.8883 198.424 95.2774 198.424C92.6665 198.424 90.383 197.447 88.4268 195.494L4.49833 111.683C2.5341 109.722 1.55199 107.437 1.55199 104.83C1.55199 102.223 2.53006 99.9426 4.48621 97.9892L22.4674 79.9606C24.4317 78.0072 26.7313 77.0305 29.3665 77.0305C32.0016 77.0305 34.2973 78.0072 36.2534 79.9606L58.8421 102.76L103.559 58.1059L80.7396 35.5369C78.7754 33.5835 77.7933 31.3032 77.7933 28.696C77.7933 26.0887 78.7754 23.8044 80.7396 21.8429L98.7087 3.59639C100.673 1.63491 103.009 0.654175 105.717 0.654175C108.425 0.654175 110.761 1.63087 112.725 3.58427L196.641 87.3827C198.606 89.3442 199.588 91.6769 199.588 94.381C199.588 97.0851 198.606 99.4179 196.641 101.379L178.369 119.335C176.405 121.289 174.117 122.265 171.507 122.265C168.896 122.265 166.612 121.289 164.656 119.335L142.055 96.5362L97.3386 141.202L120.17 163.759C122.126 165.712 123.104 168.005 123.104 170.636C123.104 173.268 122.126 175.564 120.17 177.526L102.14 195.494Z" fill="#F5E8C9"/>
</svg>
