<svg width="103" height="103" viewBox="0 0 103 103" fill="none" xmlns="http://www.w3.org/2000/svg">
<path d="M52.8969 20.5447C52.6009 20.2615 52.2071 20.1035 51.7975 20.1035C51.3878 20.1035 50.994 20.2615 50.698 20.5447L14.0952 55.5111C13.9397 55.6598 13.8161 55.8385 13.7317 56.0364C13.6473 56.2343 13.6039 56.4472 13.6041 56.6623L13.5981 89.4796C13.5981 91.1669 14.2685 92.7852 15.4616 93.9784C16.6548 95.1715 18.273 95.8418 19.9604 95.8418H39.067C39.9107 95.8418 40.7198 95.5067 41.3164 94.9101C41.913 94.3135 42.2481 93.5044 42.2481 92.6607V65.6212C42.2481 65.1993 42.4157 64.7947 42.714 64.4965C43.0123 64.1982 43.4168 64.0306 43.8387 64.0306H59.7443C60.1661 64.0306 60.5707 64.1982 60.869 64.4965C61.1673 64.7947 61.3349 65.1993 61.3349 65.6212V92.6607C61.3349 93.5044 61.67 94.3135 62.2666 94.9101C62.8632 95.5067 63.6723 95.8418 64.516 95.8418H83.6146C85.302 95.8418 86.9203 95.1715 88.1134 93.9784C89.3066 92.7852 89.9769 91.1669 89.9769 89.4796V56.6623C89.9771 56.4472 89.9337 56.2343 89.8493 56.0364C89.7649 55.8385 89.6413 55.6598 89.4858 55.5111L52.8969 20.5447Z" fill="#F5E8C9"/>
<path d="M98.4963 48.9501L83.6246 34.7225V13.1327C83.6246 12.289 83.2894 11.4798 82.6929 10.8833C82.0963 10.2867 81.2871 9.95154 80.4435 9.95154H70.9001C70.0564 9.95154 69.2473 10.2867 68.6507 10.8833C68.0541 11.4798 67.719 12.289 67.719 13.1327V19.4949L56.2033 8.48425C55.1257 7.39471 53.5232 6.77042 51.7915 6.77042C50.0657 6.77042 48.4672 7.39471 47.3896 8.48623L5.10057 48.9461C3.86391 50.1391 3.70883 52.1014 4.83415 53.3937C5.11674 53.7199 5.46275 53.9852 5.85112 54.1735C6.23949 54.3617 6.6621 54.4689 7.09323 54.4887C7.52436 54.5084 7.95499 54.4402 8.35892 54.2882C8.76285 54.1361 9.13163 53.9035 9.4428 53.6045L50.698 14.1824C50.994 13.8993 51.3878 13.7412 51.7975 13.7412C52.2071 13.7412 52.6009 13.8993 52.8969 14.1824L94.1561 53.6045C94.7639 54.1873 95.5779 54.5054 96.4198 54.489C97.2618 54.4726 98.0628 54.1231 98.6474 53.517C99.8682 52.2525 99.7668 50.1649 98.4963 48.9501Z" fill="#F5E8C9"/>
</svg>
