<svg width="121" height="92" viewBox="0 0 121 92" fill="none" xmlns="http://www.w3.org/2000/svg">
<path d="M107.439 26.7754C99.867 26.7754 95.6372 34.295 97.3604 39.8825L78.8226 58.4726C77.256 58.0026 74.9583 58.0026 73.3917 58.4726L60.0758 45.1566C61.8513 39.5692 57.6215 31.9974 49.9975 31.9974C42.4256 31.9974 38.1436 39.517 39.9191 45.1566L16.1071 68.9165C10.5196 67.1932 3 71.423 3 78.9948C3 84.7389 7.69975 89.4387 13.4439 89.4387C21.0157 89.4387 25.2455 81.9191 23.5222 76.3316L47.282 52.5196C48.8486 52.9896 51.1463 52.9896 52.7129 52.5196L66.0288 65.8355C64.2533 71.423 68.4831 78.9948 76.1071 78.9948C83.679 78.9948 87.961 71.4752 86.1855 65.8355L104.776 47.2976C110.363 49.0209 117.883 44.7911 117.883 37.2193C117.883 31.4752 113.183 26.7754 107.439 26.7754Z" fill="#F5E8C9" stroke="#F5E8C9" stroke-width="4.95642"/>
<path d="M80.2874 19.5746L79.6797 19.849L79.404 20.4561L76.1245 27.678L72.9205 20.4691L72.6449 19.849L72.0255 19.572L64.7781 16.3316L72.0255 13.0912L72.6449 12.8142L72.9205 12.1941L76.1245 4.98519L79.404 12.2071L79.6797 12.8142L80.2874 13.0885L87.4709 16.3316L80.2874 19.5746ZM18.2365 30.2801L17.2061 30.5377L16.9485 31.5681L16.0548 35.1428L15.1612 31.5681L14.9036 30.5377L13.8732 30.2801L10.2985 29.3864L13.8732 28.4928L14.9036 28.2352L15.1612 27.2048L16.0548 23.6301L16.9485 27.2048L17.2061 28.2352L18.2365 28.4928L21.8112 29.3864L18.2365 30.2801Z" stroke="#F5E8C9" stroke-width="3.5403"/>
</svg>
