<svg width="126" height="126" viewBox="0 0 126 126" fill="none" xmlns="http://www.w3.org/2000/svg">
<path d="M109.661 41.7754C102.089 41.7754 97.8591 49.295 99.5824 54.8825L81.0445 73.4726C79.4779 73.0026 77.1802 73.0026 75.6137 73.4726L62.2977 60.1566C64.0732 54.5692 59.8434 46.9974 52.2194 46.9974C44.6476 46.9974 40.3656 54.5169 42.141 60.1566L18.329 83.9165C12.7415 82.1932 5.22192 86.423 5.22192 93.9948C5.22192 99.7389 9.92167 104.439 15.6658 104.439C23.2376 104.439 27.4674 96.9191 25.7441 91.3316L49.504 67.5196C51.0705 67.9895 53.3682 67.9895 54.9348 67.5196L68.2507 80.8355C66.4753 86.423 70.705 93.9948 78.3291 93.9948C85.9009 93.9948 90.1829 86.4752 88.4074 80.8355L106.998 62.2976C112.585 64.0209 120.105 59.7911 120.105 52.2193C120.105 46.4752 115.405 41.7754 109.661 41.7754Z" fill="#F5E8C9" stroke="#F5E8C9" stroke-width="4.95642"/>
<path d="M82.5093 34.5746L81.9016 34.849L81.6259 35.4561L78.3464 42.678L75.1425 35.4691L74.8669 34.849L74.2474 34.572L67 31.3316L74.2474 28.0912L74.8669 27.8142L75.1425 27.1941L78.3464 19.9852L81.6259 27.2071L81.9016 27.8142L82.5093 28.0885L89.6928 31.3316L82.5093 34.5746ZM20.4584 45.2801L19.428 45.5377L19.1704 46.5681L18.2768 50.1428L17.3831 46.5681L17.1255 45.5377L16.0951 45.2801L12.5204 44.3864L16.0951 43.4928L17.1255 43.2352L17.3831 42.2048L18.2768 38.6301L19.1704 42.2048L19.428 43.2352L20.4584 43.4928L24.0331 44.3864L20.4584 45.2801Z" stroke="#F5E8C9" stroke-width="3.5403"/>
</svg>
