<svg width="111" height="111" viewBox="0 0 111 111" fill="none" xmlns="http://www.w3.org/2000/svg">
<path d="M101.585 64.788L101.484 64.7059L94.668 59.3609C94.2364 59.0195 93.892 58.5805 93.663 58.0801C93.434 57.5796 93.3269 57.032 93.3507 56.4822V53.9857C93.3291 53.4393 93.4374 52.8957 93.6668 52.3993C93.8962 51.903 94.2401 51.4682 94.6702 51.1307L101.484 45.7835L101.585 45.7015C102.636 44.8261 103.341 43.6055 103.575 42.2579C103.808 40.9103 103.555 39.5237 102.859 38.3459L93.6358 22.3864C93.6252 22.3714 93.6158 22.3555 93.6077 22.3389C92.9088 21.1774 91.8252 20.2973 90.545 19.8516C89.2648 19.4058 87.869 19.4224 86.5998 19.8986L86.5242 19.9266L78.5121 23.1509C78.0064 23.3554 77.4594 23.4368 76.916 23.3883C76.3727 23.3399 75.8487 23.163 75.3872 22.8723C74.6788 22.426 73.9589 22.0042 73.2276 21.6068C72.7534 21.3497 72.3462 20.9847 72.039 20.5413C71.7318 20.0979 71.533 19.5885 71.4589 19.0542L70.2516 10.5043L70.2257 10.3488C69.9629 9.02456 69.2523 7.83111 68.2132 6.96904C67.1742 6.10698 65.8701 5.62884 64.5201 5.61499H46.0512C44.6821 5.61937 43.3585 6.10677 42.3136 6.99131C41.2687 7.87585 40.5694 9.1008 40.339 10.4503L40.3196 10.5713L39.1167 19.1384C39.0429 19.6712 38.8458 20.1794 38.541 20.6225C38.2362 21.0657 37.8321 21.4316 37.361 21.691C36.6274 22.0861 35.9072 22.5053 35.2014 22.9479C34.7406 23.2368 34.2179 23.4124 33.6762 23.46C33.1345 23.5077 32.5892 23.4262 32.0851 23.2222L24.0665 19.9828L23.9909 19.9526C22.7199 19.4759 21.322 19.4599 20.0404 19.9073C18.7588 20.3548 17.6746 21.2374 16.9765 22.4015L16.9484 22.4491L7.71184 38.4193C7.01565 39.5983 6.76155 40.9865 6.99498 42.3357C7.22842 43.6848 7.93416 44.907 8.986 45.7835L9.0875 45.8656L15.9032 51.2106C16.3348 51.552 16.6793 51.991 16.9083 52.4914C17.1373 52.9919 17.2443 53.5395 17.2205 54.0893V56.5858C17.2422 57.1322 17.1338 57.6758 16.9045 58.1722C16.6751 58.6685 16.3312 59.1033 15.901 59.4408L9.0875 64.788L8.986 64.87C7.9352 65.7454 7.23003 66.966 6.9966 68.3136C6.76317 69.6612 7.01669 71.0478 7.71184 72.2256L16.9355 88.1851C16.9461 88.2001 16.9555 88.216 16.9636 88.2326C17.6625 89.3941 18.7461 90.2741 20.0262 90.7199C21.3064 91.1657 22.7023 91.1491 23.9715 90.6729L24.047 90.6449L32.0527 87.4206C32.5584 87.2161 33.1054 87.1347 33.6487 87.1832C34.192 87.2316 34.7161 87.4085 35.1776 87.6992C35.886 88.1469 36.6058 88.5688 37.3372 88.9647C37.8114 89.2218 38.2185 89.5868 38.5258 90.0302C38.833 90.4736 39.0317 90.983 39.1059 91.5173L40.3067 100.067L40.3326 100.223C40.5958 101.549 41.3084 102.744 42.3501 103.607C43.3918 104.469 44.6989 104.946 46.0512 104.957H64.5201C65.8891 104.952 67.2127 104.465 68.2576 103.58C69.3026 102.696 70.0018 101.471 70.2322 100.121L70.2516 100L71.4545 91.4331C71.5295 90.8993 71.7283 90.3905 72.035 89.9472C72.3418 89.504 72.7479 89.1387 73.2211 88.8805C73.9597 88.4831 74.681 88.062 75.3807 87.6236C75.8414 87.3346 76.3641 87.1591 76.9058 87.1115C77.4476 87.0638 77.9929 87.1453 78.497 87.3493L86.5156 90.5779L86.5912 90.6081C87.8621 91.0857 89.2603 91.1021 90.5421 90.6546C91.8239 90.2071 92.908 89.324 93.6055 88.1592C93.6142 88.1429 93.6236 88.1271 93.6336 88.1116L102.857 72.1544C103.555 70.9755 103.81 69.5869 103.577 68.2371C103.344 66.8874 102.638 65.6647 101.585 64.788ZM72.543 56.0978C72.3857 59.4421 71.2601 62.6686 69.3031 65.3851C67.3461 68.1016 64.6419 70.1909 61.5195 71.399C58.3971 72.6071 54.9909 72.8819 51.7151 72.1901C48.4394 71.4983 45.4353 69.8695 43.068 67.502C40.7007 65.1345 39.0724 62.1301 38.3809 58.8543C37.6895 55.5785 37.9647 52.1723 39.1732 49.05C40.3817 45.9278 42.4714 43.2239 45.1881 41.2672C47.9047 39.3105 51.1315 38.1853 54.4758 38.0284C56.8767 37.9227 59.2734 38.3177 61.5134 39.1884C63.7534 40.0591 65.7877 41.3864 67.487 43.0859C69.1863 44.7854 70.5133 46.8199 71.3838 49.06C72.2542 51.3001 72.649 53.6968 72.543 56.0978Z" stroke="#F5E8C9" stroke-width="6.14286"/>
</svg>
